PathFileType	4	(X/Y/Z)	C:\Users\ebm\Documents\Erivelton\Erivelton2\wc4.trc
DataRate	CameraRate	NumFrames	NumMarkers	Units	OrigDataRate	OrigDataStartFrame	OrigNumFrames
150.00	150.00	      10	28	mm	150.00	771	      1232
Frame#	Time	IJ			PX			C7			T8			RAC			RAS			RPS			RAI			RPI			RLE			RME			RRS			RUS			R3M			R5M			LAC			LAS			LPS			LAI			LPI			LLE			LME			LRS			LUS			L3M			L5M			RW			LW			V_mid_elbow_r			V_mid_elbow_l			V_mid_wrist_r			V_mid_wrist_l			V_mid_trunk_low			V_mid_trunk_upp			
		X1	Y1	Z1	X2	Y2	Z2	X3	Y3	Z3	X4	Y4	Z4	X5	Y5	Z5	X6	Y6	Z6	X7	Y7	Z7	X8	Y8	Z8	X9	Y9	Z9	X10	Y10	Z10	X11	Y11	Z11	X12	Y12	Z12	X13	Y13	Z13	X14	Y14	Z14	X15	Y15	Z15	X16	Y16	Z16	X17	Y17	Z17	X18	Y18	Z18	X19	Y19	Z19	X20	Y20	Z20	X21	Y21	Z21	X22	Y22	Z22	X23	Y23	Z23	X24	Y24	Z24	X25	Y25	Z25	X26	Y26	Z26	X27	Y27	Z27	X28	Y28	Z28	

771	5.133	1884.97107	1016.08569	55.96938	1880.35742	850.49872	67.72337	1768.71582	1131.08838	49.86391	1677.40271	989.89661	56.19680	1804.49707	1076.98987	254.00693	1703.47644	953.47699	336.40897	1674.20007	992.45313	324.85706	1647.09961	911.21393	370.98181	1613.27246	951.86890	359.89630	1572.63684	895.97534	389.87988	1545.55652	877.52460	312.65778	1701.22559	661.51215	351.52350	1659.56091	646.96631	395.44595	1731.73645	594.85571	389.50824	1698.83752	576.50592	399.22281	1798.15674	1078.03125	-127.04539	1696.87463	982.24170	-205.96330	1664.03870	997.92932	-173.78670	1645.51404	929.85437	-241.95055	1607.04541	946.18011	-206.64238	1582.87268	867.66376	-272.63873	1548.80481	855.33704	-200.36810	1708.41528	638.69617	-235.79675	1670.01843	611.13428	-278.63489	1745.18152	575.75500	-277.28815	1708.63928	558.60034	-285.17209	1780.81909	302.81250	366.04938	1808.01416	300.15564	-262.35132	
772	5.140	1892.88635	1015.99176	56.15217	1888.21448	850.58136	67.72495	1776.68140	1131.11255	49.90652	1685.27393	990.02319	56.20052	1812.23877	1077.16663	253.98022	1710.25024	954.31616	335.87183	1681.37292	993.37457	324.12509	1653.51245	912.40247	370.19437	1619.97705	953.10614	358.73270	1578.90613	897.46600	388.58786	1552.15454	879.24677	311.16772	1705.37207	661.80774	349.68130	1663.86792	647.49921	393.95563	1735.60339	595.36212	387.98993	1702.81909	577.01190	397.72772	1806.10803	1078.14014	-126.91601	1704.14990	983.14471	-205.52530	1671.50195	999.13690	-173.26872	1652.28137	931.15918	-241.43237	1613.97009	947.76056	-205.84300	1588.95972	869.44470	-271.73630	1554.85315	857.75873	-199.36078	1710.38586	638.29858	-234.79720	1671.71362	611.45050	-277.83807	1746.43542	575.35577	-276.32727	1709.76416	558.49988	-284.25113	1788.38794	302.94257	366.39902	1815.99658	300.05820	-262.11212	
773	5.147	1900.81677	1015.92346	56.17216	1896.04785	850.50922	67.90381	1784.60461	1131.10327	49.98611	1693.18494	990.05750	56.24638	1820.10986	1077.31128	253.90697	1717.26965	954.89215	335.25003	1688.55676	994.12030	323.50348	1660.24280	913.19330	369.06076	1626.85620	954.12347	357.68707	1585.36548	898.65479	387.38742	1558.86902	880.69318	309.79990	1709.60901	661.74066	347.95053	1668.29590	647.98950	392.68103	1739.71619	595.63751	386.62564	1707.04236	577.32410	396.20947	1813.95386	1078.20276	-126.76666	1711.49304	983.91718	-205.17419	1678.96118	1000.13879	-172.82185	1659.20508	932.23279	-240.81226	1621.00928	949.12683	-205.18820	1595.18286	870.95782	-270.93301	1561.29724	859.86884	-198.46051	1712.39246	637.72632	-233.49301	1673.68372	611.50916	-277.09451	1747.94971	574.89056	-275.19122	1711.19348	558.19287	-283.42078	1795.90112	303.03464	366.59796	1824.04944	299.99835	-261.89438	
774	5.153	1908.81445	1015.94623	56.25208	1903.99133	850.69580	67.90116	1792.52222	1131.18213	49.97845	1701.08337	990.14148	56.28469	1827.75269	1077.49670	253.87663	1724.42212	955.31018	334.73474	1695.93103	994.64020	322.84296	1667.00427	913.79932	368.28549	1633.89880	954.81366	356.83795	1591.99390	899.54352	386.24213	1565.91260	881.86774	308.49359	1714.40356	661.59906	346.09332	1673.13513	648.05042	390.98993	1744.21179	595.80005	385.28049	1711.58435	577.32135	394.72318	1821.85583	1078.24377	-126.64540	1718.87341	984.56348	-204.87401	1686.51172	1000.96381	-172.49304	1666.15759	933.05676	-240.24837	1628.11169	950.26001	-204.58290	1601.64209	872.28857	-270.23212	1567.64600	861.77063	-197.60931	1714.91284	637.07990	-232.57835	1675.93579	611.41187	-276.21597	1749.69812	574.20807	-274.38315	1712.94836	557.53577	-282.63797	1803.38867	303.07928	366.82465	1831.95972	299.97742	-261.69507	
775	5.160	1916.70276	1015.95453	56.26128	1911.72009	850.64685	68.12296	1800.49438	1131.16333	49.93411	1708.91931	990.26111	56.25186	1835.58057	1077.62561	253.87514	1731.64917	955.58429	334.28128	1703.28809	995.09253	322.37289	1674.02197	914.23688	367.62326	1641.06128	955.31519	355.96637	1598.91931	900.12653	385.19205	1572.95789	882.73053	307.28043	1719.56250	661.44910	344.97964	1678.19934	647.94696	389.72128	1749.15515	595.67920	384.08835	1716.45996	577.13690	393.35248	1829.78833	1078.25928	-126.59095	1726.36609	985.03540	-204.59944	1694.16992	1001.59973	-172.24626	1673.29443	933.75128	-239.76372	1635.42261	951.18610	-204.10559	1608.33350	873.33240	-269.52457	1574.34436	863.37457	-196.92241	1717.88147	636.47906	-231.78134	1678.44019	611.08447	-275.44528	1751.54907	573.64819	-273.58139	1714.88879	556.91974	-281.66489	1810.85095	303.11371	367.03616	1839.90430	300.00571	-261.42953	
776	5.167	1924.49841	1015.92682	56.30359	1919.61267	850.49542	67.90829	1808.38013	1131.27234	49.95606	1716.78979	990.36115	56.24840	1843.32996	1077.77075	253.88214	1739.08862	955.65656	333.80295	1710.78491	995.20911	321.92877	1681.18115	914.27533	366.79095	1648.45020	955.53607	355.20999	1606.03601	900.39380	384.24368	1580.27319	883.26813	306.21927	1725.07568	660.90338	343.25259	1683.61975	647.47479	388.30124	1754.56775	595.24902	382.75552	1721.79834	576.75110	391.91391	1837.72961	1078.27625	-126.54414	1733.87231	985.36469	-204.34111	1701.76770	1002.06750	-172.01418	1680.67761	934.25739	-239.40868	1642.78870	951.88000	-203.68172	1615.19568	874.05597	-268.85709	1581.21838	864.71497	-196.28629	1721.22058	635.59351	-231.19540	1681.30737	610.62280	-274.74460	1754.17664	573.07220	-272.93839	1717.39185	556.10651	-280.98120	1818.24817	303.18781	367.29623	1847.82373	299.99603	-261.20306	
777	5.173	1932.39819	1015.97168	56.35299	1927.44055	850.58307	68.01026	1816.26587	1131.27722	49.93995	1724.61121	990.56921	56.21726	1851.15344	1077.82275	253.87706	1746.49780	955.57404	333.38162	1718.38147	995.20905	321.52979	1688.54443	914.14099	366.06049	1655.83521	955.53522	354.67480	1613.35852	900.33807	383.35156	1587.76636	883.52094	305.18317	1730.88501	660.28461	342.12421	1689.39380	646.97046	386.87442	1760.16907	594.76685	381.48581	1727.45020	576.21497	390.59875	1845.62830	1078.19629	-126.56016	1741.38684	985.47913	-204.16922	1709.39001	1002.34271	-171.88322	1688.03381	934.48926	-239.01866	1650.25818	952.31628	-203.32620	1622.17749	874.53906	-268.28943	1588.36255	865.72687	-195.64415	1724.88074	634.58759	-230.61603	1684.81531	610.16333	-274.08148	1757.60156	572.13257	-272.46814	1720.47668	555.48291	-280.72687	1825.72144	303.24362	367.59268	1855.77637	299.84061	-260.93829	
778	5.180	1940.34753	1016.04419	56.32037	1935.23401	850.59326	68.09528	1824.19922	1131.33667	49.89230	1732.46826	990.63818	56.16372	1858.94812	1077.89807	253.87656	1754.17639	955.32587	332.97565	1725.99585	994.99286	321.26276	1696.06653	913.81366	365.49408	1663.43433	955.22717	354.04163	1620.81860	899.99261	382.50629	1595.39075	883.54675	304.27988	1737.00439	659.31226	340.49051	1695.67920	646.07953	385.49857	1766.28833	594.03534	380.28598	1733.48706	575.54199	389.54959	1853.51025	1078.16589	-126.58496	1749.02881	985.50067	-203.98604	1717.08020	1002.51465	-171.75302	1695.58496	934.50647	-238.72595	1657.81348	952.52393	-203.07062	1629.44067	874.78693	-267.77899	1595.59485	866.39294	-195.02917	1729.22400	633.60077	-230.43550	1688.66919	609.55060	-273.60297	1761.36243	570.81787	-272.13766	1723.86780	554.80127	-280.43036	1833.13965	303.33438	367.84171	1863.57629	299.80005	-260.74356	
779	5.187	1948.13733	1016.12274	56.33863	1943.18250	850.80640	68.31999	1832.06763	1131.44458	49.86448	1740.29395	990.72571	56.12292	1866.67932	1077.94519	253.88480	1761.84973	954.95007	332.63229	1733.69861	994.60394	320.99445	1703.79712	913.27344	364.86450	1671.06348	954.66455	353.60889	1628.50232	899.36047	381.72070	1603.25586	883.19434	303.45721	1743.59900	658.17682	339.06064	1702.23022	645.14960	384.52405	1772.88342	593.16357	379.31070	1740.17700	574.87836	388.67554	1861.39697	1078.02576	-126.69811	1756.78345	985.31396	-203.91870	1724.84692	1002.46307	-171.70792	1703.11951	934.43298	-238.43123	1665.50818	952.49011	-202.89299	1636.79065	874.78009	-267.31622	1603.06763	866.78534	-194.57562	1733.84680	632.40875	-230.20654	1692.84009	608.84393	-273.31622	1765.31238	569.35223	-272.05466	1727.72534	553.70178	-280.14743	1840.49792	303.33530	368.08734	1871.49170	299.80099	-260.55072	
780	5.193	1956.00354	1016.14685	56.31025	1950.95740	850.83948	68.07047	1839.88147	1131.52246	49.80782	1748.08557	990.95166	56.06036	1874.42151	1077.88660	253.90987	1769.75635	954.35321	332.21710	1741.47693	994.05884	320.79352	1711.66003	912.46655	364.39163	1678.93677	953.83807	353.15720	1636.42310	898.44385	381.05304	1611.17786	882.57257	302.66797	1750.58203	656.86426	337.87619	1709.30029	643.92218	383.47046	1780.00696	592.21857	378.30872	1747.42676	573.91229	387.79318	1869.32629	1077.91077	-126.78831	1764.56543	985.05725	-203.83192	1732.63916	1002.26227	-171.68729	1710.94983	934.00690	-238.28191	1673.23145	952.34894	-202.70007	1644.44604	874.49896	-266.94089	1610.74500	866.83472	-194.19038	1738.77734	631.04041	-230.09235	1697.56396	607.89075	-273.09601	1769.74329	567.86841	-271.83609	1732.00696	552.56573	-279.79996	1847.89429	303.23395	368.22668	1879.26355	299.71970	-260.32703	
